<?xml version="1.0" encoding="UTF-8" standalone="no"?>
<!-- Created with Inkscape (http://www.inkscape.org/) -->

<svg
   xmlns:a="http://ns.adobe.com/AdobeSVGViewerExtensions/3.0/"
   xmlns:dc="http://purl.org/dc/elements/1.1/"
   xmlns:cc="http://creativecommons.org/ns#"
   xmlns:rdf="http://www.w3.org/1999/02/22-rdf-syntax-ns#"
   xmlns:svg="http://www.w3.org/2000/svg"
   xmlns="http://www.w3.org/2000/svg"
   xmlns:xlink="http://www.w3.org/1999/xlink"
   xmlns:sodipodi="http://sodipodi.sourceforge.net/DTD/sodipodi-0.dtd"
   xmlns:inkscape="http://www.inkscape.org/namespaces/inkscape"
   version="1.0"
   width="128"
   height="128"
   viewBox="0 0 128 128"
   id="svg2"
   xml:space="preserve"
   sodipodi:docname="application-x-molsketch-molecule.svg"
   inkscape:version="0.92.2 5c3e80d, 2017-08-06"><metadata
     id="metadata1244"><rdf:RDF><cc:Work
         rdf:about=""><dc:format>image/svg+xml</dc:format><dc:type
           rdf:resource="http://purl.org/dc/dcmitype/StillImage" /></cc:Work></rdf:RDF></metadata><sodipodi:namedview
     pagecolor="#ffffff"
     bordercolor="#666666"
     borderopacity="1"
     objecttolerance="10"
     gridtolerance="10"
     guidetolerance="10"
     inkscape:pageopacity="0"
     inkscape:pageshadow="2"
     inkscape:window-width="1920"
     inkscape:window-height="1140"
     id="namedview1242"
     showgrid="false"
     inkscape:zoom="6.96875"
     inkscape:cx="64"
     inkscape:cy="64"
     inkscape:window-x="0"
     inkscape:window-y="0"
     inkscape:window-maximized="1"
     inkscape:current-layer="svg2" /><defs
     id="defs157"><linearGradient
       x1="68.906303"
       y1="80.840797"
       x2="68.906303"
       y2="113.9932"
       id="XMLID_22_"
       gradientUnits="userSpaceOnUse"><stop
         style="stop-color:#ff0000;stop-opacity:1"
         offset="0"
         id="stop64" /><stop
         style="stop-color:#7c0000;stop-opacity:1"
         offset="1"
         id="stop66" /><a:midPointStop
         offset="0"
         style="stop-color:#FF0000" /><a:midPointStop
         offset="0.5"
         style="stop-color:#FF0000" /><a:midPointStop
         offset="1"
         style="stop-color:#7C0000" /></linearGradient><linearGradient
       x1="60.133801"
       y1="43.399899"
       x2="60.133801"
       y2="99.400902"
       id="XMLID_23_"
       gradientUnits="userSpaceOnUse"><stop
         style="stop-color:#57adff;stop-opacity:1"
         offset="0"
         id="stop71" /><stop
         style="stop-color:#428aff;stop-opacity:1"
         offset="1"
         id="stop73" /><a:midPointStop
         offset="0"
         style="stop-color:#57ADFF" /><a:midPointStop
         offset="0.5"
         style="stop-color:#57ADFF" /><a:midPointStop
         offset="1"
         style="stop-color:#428AFF" /></linearGradient><linearGradient
       x1="71.484398"
       y1="-25.1563"
       x2="71.484398"
       y2="111.497"
       id="XMLID_24_"
       gradientUnits="userSpaceOnUse"><stop
         style="stop-color:#a20000;stop-opacity:1"
         offset="0"
         id="stop84" /><stop
         style="stop-color:#ff6d00;stop-opacity:1"
         offset="1"
         id="stop86" /><a:midPointStop
         offset="0"
         style="stop-color:#A20000" /><a:midPointStop
         offset="0.5"
         style="stop-color:#A20000" /><a:midPointStop
         offset="1"
         style="stop-color:#FF6D00" /></linearGradient><linearGradient
       x1="-174.02049"
       y1="79.044899"
       x2="-97.685097"
       y2="79.044899"
       id="XMLID_25_"
       gradientUnits="userSpaceOnUse"
       gradientTransform="matrix(-1,0,0,-1,-64.3691,123.9707)"><stop
         style="stop-color:#ffc957;stop-opacity:1"
         offset="0"
         id="stop91" /><stop
         style="stop-color:#ffe6b0;stop-opacity:1"
         offset="1"
         id="stop93" /><a:midPointStop
         offset="0"
         style="stop-color:#FFC957" /><a:midPointStop
         offset="0.5"
         style="stop-color:#FFC957" /><a:midPointStop
         offset="1"
         style="stop-color:#FFE6B0" /></linearGradient><radialGradient
       cx="297.5"
       cy="445.79971"
       r="44.724602"
       fx="297.5"
       fy="445.79971"
       id="radialGradient579"
       xlink:href="#linearGradient576"
       gradientUnits="userSpaceOnUse" /><radialGradient
       cx="297.5"
       cy="445.79971"
       r="44.724602"
       fx="297.5"
       fy="445.79971"
       id="radialGradient574"
       xlink:href="#linearGradient570"
       gradientUnits="userSpaceOnUse" /><linearGradient
       x1="0.43846199"
       y1="0.96875"
       x2="0.42307699"
       y2="0.328125"
       id="linearGradient573"
       xlink:href="#linearGradient570" /><linearGradient
       id="linearGradient570"><stop
         style="stop-color:#4c0000;stop-opacity:0.60390002"
         offset="0"
         id="stop571" /><stop
         style="stop-color:#970000;stop-opacity:0"
         offset="1"
         id="stop572" /></linearGradient><linearGradient
       id="linearGradient576"><stop
         style="stop-color:#02000d;stop-opacity:0.60390002"
         offset="0"
         id="stop577" /><stop
         style="stop-color:#970000;stop-opacity:0"
         offset="1"
         id="stop578" /></linearGradient><linearGradient
       x1="-178.57961"
       y1="304.93549"
       x2="-178.57961"
       y2="560.43481"
       id="XMLID_16_"
       gradientUnits="userSpaceOnUse"
       gradientTransform="matrix(1,0,0,-1,242.5,459.5)"><stop
         style="stop-color:#ffffff;stop-opacity:1"
         offset="0"
         id="stop12" /><stop
         style="stop-color:#f1f1f1;stop-opacity:1"
         offset="0.25799999"
         id="stop14" /><stop
         style="stop-color:#cecece;stop-opacity:1"
         offset="0.7396"
         id="stop16" /><stop
         style="stop-color:#c4c4c4;stop-opacity:1"
         offset="0.85949999"
         id="stop18" /><a:midPointStop
         style="stop-color:#FFFFFF"
         offset="0" /><a:midPointStop
         style="stop-color:#FFFFFF"
         offset="0.5" /><a:midPointStop
         style="stop-color:#F1F1F1"
         offset="0.258" /><a:midPointStop
         style="stop-color:#F1F1F1"
         offset="0.5" /><a:midPointStop
         style="stop-color:#CECECE"
         offset="0.7396" /><a:midPointStop
         style="stop-color:#CECECE"
         offset="0.5" /><a:midPointStop
         style="stop-color:#C4C4C4"
         offset="0.8595" /></linearGradient><radialGradient
       cx="-134.0332"
       cy="341.25101"
       r="34.736401"
       fx="-134.0332"
       fy="341.25101"
       id="XMLID_17_"
       gradientUnits="userSpaceOnUse"
       gradientTransform="matrix(1,0,0,-1,242.5,459.5)"><stop
         style="stop-color:#000000;stop-opacity:1"
         offset="0"
         id="stop23" /><stop
         style="stop-color:#000000;stop-opacity:1"
         offset="1"
         id="stop25" /><a:midPointStop
         style="stop-color:#000000"
         offset="0" /><a:midPointStop
         style="stop-color:#000000"
         offset="0.5" /><a:midPointStop
         style="stop-color:#000000"
         offset="1" /></radialGradient><linearGradient
       x1="-268.83249"
       y1="485.83401"
       x2="-186.3333"
       y2="403.33481"
       id="XMLID_18_"
       gradientUnits="userSpaceOnUse"
       gradientTransform="matrix(1,0,0,-1,242.5,459.5)"><stop
         style="stop-color:#b3b3b3;stop-opacity:1"
         offset="0"
         id="stop30" /><stop
         style="stop-color:#828282;stop-opacity:1"
         offset="1"
         id="stop32" /><a:midPointStop
         style="stop-color:#B3B3B3"
         offset="0" /><a:midPointStop
         style="stop-color:#B3B3B3"
         offset="0.5" /><a:midPointStop
         style="stop-color:#828282"
         offset="1" /></linearGradient><linearGradient
       x1="-138.48241"
       y1="361.31931"
       x2="-147.41071"
       y2="323.70621"
       id="XMLID_19_"
       gradientUnits="userSpaceOnUse"
       gradientTransform="matrix(1,0,0,-1,242.5,459.5)"><stop
         style="stop-color:#ffffff;stop-opacity:1"
         offset="0"
         id="stop39" /><stop
         style="stop-color:#cccccc;stop-opacity:1"
         offset="1"
         id="stop41" /><a:midPointStop
         style="stop-color:#FFFFFF"
         offset="0" /><a:midPointStop
         style="stop-color:#FFFFFF"
         offset="0.5" /><a:midPointStop
         style="stop-color:#CCCCCC"
         offset="1" /></linearGradient><linearGradient
       x1="-160.1909"
       y1="371.4082"
       x2="-146.3952"
       y2="357.61249"
       id="XMLID_20_"
       gradientUnits="userSpaceOnUse"
       gradientTransform="matrix(1,0,0,-1,242.5,459.5)"><stop
         style="stop-color:#b3b3b3;stop-opacity:1"
         offset="0"
         id="stop46" /><stop
         style="stop-color:#828282;stop-opacity:1"
         offset="1"
         id="stop48" /><a:midPointStop
         style="stop-color:#B3B3B3"
         offset="0" /><a:midPointStop
         style="stop-color:#B3B3B3"
         offset="0.5" /><a:midPointStop
         style="stop-color:#828282"
         offset="1" /></linearGradient><linearGradient
       x1="-199.47659"
       y1="434.0791"
       x2="-38.492199"
       y2="348.4353"
       id="XMLID_21_"
       gradientUnits="userSpaceOnUse"
       gradientTransform="matrix(1,0,0,-1,242.5,459.5)"><stop
         style="stop-color:#ffffff;stop-opacity:1"
         offset="0"
         id="stop53" /><stop
         style="stop-color:#e7e7e7;stop-opacity:1"
         offset="0.50330001"
         id="stop55" /><stop
         style="stop-color:#d4d4d4;stop-opacity:1"
         offset="1"
         id="stop57" /><a:midPointStop
         style="stop-color:#FFFFFF"
         offset="0" /><a:midPointStop
         style="stop-color:#FFFFFF"
         offset="0.5" /><a:midPointStop
         style="stop-color:#E7E7E7"
         offset="0.5033" /><a:midPointStop
         style="stop-color:#E7E7E7"
         offset="0.5" /><a:midPointStop
         style="stop-color:#D4D4D4"
         offset="1" /></linearGradient><linearGradient
       x1="-178.57961"
       y1="304.93549"
       x2="-178.57961"
       y2="560.43481"
       id="linearGradient2677"
       xlink:href="#XMLID_16_"
       gradientUnits="userSpaceOnUse"
       gradientTransform="matrix(1,0,0,-1,242.5,459.5)" /><linearGradient
       x1="-199.47659"
       y1="434.0791"
       x2="-38.492199"
       y2="348.4353"
       id="linearGradient2679"
       xlink:href="#XMLID_21_"
       gradientUnits="userSpaceOnUse"
       gradientTransform="matrix(1,0,0,-1,242.5,459.5)" /><radialGradient
       cx="297.5"
       cy="445.79971"
       r="44.724602"
       fx="297.5"
       fy="445.79971"
       id="radialGradient2681"
       xlink:href="#linearGradient576"
       gradientUnits="userSpaceOnUse" /><radialGradient
       cx="297.5"
       cy="445.79971"
       r="44.724602"
       fx="297.5"
       fy="445.79971"
       id="radialGradient2683"
       xlink:href="#linearGradient570"
       gradientUnits="userSpaceOnUse" /><radialGradient
       cx="-134.0332"
       cy="341.25101"
       r="34.736401"
       fx="-134.0332"
       fy="341.25101"
       id="radialGradient2685"
       xlink:href="#XMLID_17_"
       gradientUnits="userSpaceOnUse"
       gradientTransform="matrix(1,0,0,-1,242.5,459.5)" /><linearGradient
       x1="-268.83249"
       y1="485.83401"
       x2="-186.3333"
       y2="403.33481"
       id="linearGradient2687"
       xlink:href="#XMLID_18_"
       gradientUnits="userSpaceOnUse"
       gradientTransform="matrix(1,0,0,-1,242.5,459.5)" /><linearGradient
       x1="-138.48241"
       y1="361.31931"
       x2="-147.41071"
       y2="323.70621"
       id="linearGradient2689"
       xlink:href="#XMLID_19_"
       gradientUnits="userSpaceOnUse"
       gradientTransform="matrix(1,0,0,-1,242.5,459.5)" /><linearGradient
       x1="-160.1909"
       y1="371.4082"
       x2="-146.3952"
       y2="357.61249"
       id="linearGradient2691"
       xlink:href="#XMLID_20_"
       gradientUnits="userSpaceOnUse"
       gradientTransform="matrix(1,0,0,-1,242.5,459.5)" /><linearGradient
       x1="71.484398"
       y1="-25.1563"
       x2="71.484398"
       y2="111.497"
       id="linearGradient2693"
       xlink:href="#XMLID_24_"
       gradientUnits="userSpaceOnUse" /><linearGradient
       x1="-174.02049"
       y1="79.044899"
       x2="-97.685097"
       y2="79.044899"
       id="linearGradient2695"
       xlink:href="#XMLID_25_"
       gradientUnits="userSpaceOnUse"
       gradientTransform="matrix(-1,0,0,-1,-64.3691,123.9707)" /><linearGradient
       x1="-174.02049"
       y1="79.044899"
       x2="-97.685097"
       y2="79.044899"
       id="linearGradient2730"
       xlink:href="#XMLID_25_"
       gradientUnits="userSpaceOnUse"
       gradientTransform="matrix(-1,0,0,-1,-64.3691,123.9707)" /><linearGradient
       x1="71.484398"
       y1="-25.1563"
       x2="71.484398"
       y2="111.497"
       id="linearGradient2733"
       xlink:href="#XMLID_24_"
       gradientUnits="userSpaceOnUse" /><linearGradient
       x1="-160.1909"
       y1="371.4082"
       x2="-146.3952"
       y2="357.61249"
       id="linearGradient2740"
       xlink:href="#XMLID_20_"
       gradientUnits="userSpaceOnUse"
       gradientTransform="matrix(1,0,0,-1,242.5,459.5)" /><linearGradient
       x1="-268.83249"
       y1="485.83401"
       x2="-186.3333"
       y2="403.33481"
       id="linearGradient2745"
       xlink:href="#XMLID_18_"
       gradientUnits="userSpaceOnUse"
       gradientTransform="matrix(1,0,0,-1,242.5,459.5)" /><linearGradient
       x1="-199.47659"
       y1="434.0791"
       x2="-38.492199"
       y2="348.4353"
       id="linearGradient2765"
       xlink:href="#XMLID_21_"
       gradientUnits="userSpaceOnUse"
       gradientTransform="matrix(1,0,0,-1,242.5,459.5)" /></defs><g
     transform="matrix(0.6046674,0,0,0.6046674,-134.33779,-190.14874)"
     style="font-size:12px"
     id="g597"><g
       transform="translate(3.526687,-2.015259)"
       id="g583"><circle
         cx="297.5"
         cy="418.61221"
         transform="translate(72.49998,-36.25)"
         style="fill:#0000b3;fill-rule:evenodd;stroke-width:1"
         id="path564"
         r="30" /><circle
         cx="297.5"
         cy="418.61221"
         transform="matrix(0.441423,0.123349,-0.08410152,0.30097,280.1325,205.3008)"
         style="fill:#ffffff;fill-opacity:0.45669998;fill-rule:evenodd;stroke-width:1"
         id="path565"
         r="30" /><circle
         cx="297.5"
         cy="418.61221"
         transform="translate(71.4733,-36.59851)"
         style="fill:url(#radialGradient2681);fill-rule:evenodd;stroke-width:1"
         id="path575"
         r="30" /></g><path
       d="m 350.8661,383.4841 -44.725,24.2687 c 0.5344,6.9706 4.371,11.5762 8.8529,15.2584 l 44.9275,-24.9518 c -0.6018,-6.7429 -2.6969,-10.956 -9.0554,-14.5753 z"
       style="fill:#040000;fill-rule:evenodd;stroke-width:1"
       id="path582"
       inkscape:connector-curvature="0" /><g
       id="g587"><circle
         cx="297.5"
         cy="418.61221"
         style="fill-rule:evenodd;stroke-width:1"
         id="path562"
         r="30" /><circle
         cx="297.5"
         cy="418.61221"
         transform="matrix(0.441423,0.123349,-0.08410151,0.30097,206.5758,241.2266)"
         style="fill:#ffffff;fill-opacity:0.45669998;fill-rule:evenodd;stroke-width:1"
         id="path568"
         r="30" /></g><path
       d="m 386.3464,448.6343 -1.7572,-50.8548 c -6.4764,-2.6328 -12.3102,-1.2549 -17.6056,1.1126 l 2.2782,51.3408 c 6.3027,2.4708 11.008,2.4762 17.0846,-1.5986 z"
       style="fill:#040000;fill-rule:evenodd;stroke-width:1"
       id="path596"
       inkscape:connector-curvature="0" /><g
       transform="translate(3.02288,2.015137)"
       id="g590"><circle
         cx="297.5"
         cy="418.61221"
         transform="translate(74.99999,42.49994)"
         style="fill:#ab0000;fill-rule:evenodd;stroke-width:1"
         id="path563"
         r="30" /><circle
         cx="297.5"
         cy="418.61221"
         transform="matrix(0.441423,0.123349,-0.08410151,0.30097,280.1325,284.0507)"
         style="fill:#ffffff;fill-opacity:0.45669998;fill-rule:evenodd;stroke-width:1"
         id="path566"
         r="30" /><circle
         cx="297.5"
         cy="418.61221"
         transform="matrix(0.441423,0.123349,-0.08410151,0.30097,280.1325,284.0507)"
         style="fill:#ffffff;fill-opacity:0.45669998;fill-rule:evenodd;stroke-width:1"
         id="path567"
         r="30" /><circle
         cx="297.5"
         cy="418.61221"
         transform="translate(74.99999,42.49994)"
         style="fill:url(#radialGradient2683);fill-rule:evenodd;stroke-width:1"
         id="path569"
         r="30" /></g><path
       d="m 356.3334,448.0147 -44.9279,-23.8911 c -5.5168,4.2941 -7.2385,10.0358 -7.8341,15.8057 l 45.6092,23.6828 c 5.2897,-4.2246 7.6457,-8.2976 7.1528,-15.5974 z"
       style="fill:#040000;fill-rule:evenodd;stroke-width:1"
       id="path595"
       inkscape:connector-curvature="0" /></g><rect
     width="128"
     height="128"
     x="0"
     y="0"
     style="fill:none"
     id="rect61" /><g
     transform="translate(17.450693,14.664084)"
     id="g105"><path
       d="m 59.545,43.092 c -14.88,4.784 -17.575,5.65 -18.149,6.121 0.031,-0.049 0.073,-0.12 0.073,-0.12 L 5.447,81.448 c -1.916,1.728 0.147,5.769 2.873,8.796 2.695,3 6.497,5.486 8.471,3.859 l 36.057,-32.516 0.04,-0.22 7.249,-15.556 0.975,-3.166 z"
       style="opacity:0.2"
       id="path107"
       inkscape:connector-curvature="0" /><path
       d="m 58.528,42.419 c -14.88,4.783 -17.575,5.648 -18.15,6.121 0.031,-0.049 0.075,-0.12 0.075,-0.12 L 4.431,80.772 c -1.916,1.729 0.146,5.771 2.873,8.798 2.695,3 6.496,5.486 8.47,3.859 l 36.057,-32.516 0.04,-0.22 7.248,-15.556 0.976,-3.166 z"
       style="opacity:0.2"
       id="path109"
       inkscape:connector-curvature="0" /><path
       d="m 57.511,41.745 c -14.88,4.784 -17.575,5.649 -18.15,6.122 0.03,-0.05 0.074,-0.12 0.074,-0.12 L 3.413,80.101 c -1.916,1.728 0.147,5.771 2.874,8.796 2.695,3 6.496,5.486 8.471,3.859 l 36.057,-32.515 0.039,-0.22 7.249,-15.557 0.975,-3.166 z"
       style="opacity:0.2"
       id="path111"
       inkscape:connector-curvature="0" /><path
       d="m 56.815,41.887 c -14.88,4.783 -17.574,5.648 -18.149,6.121 0.03,-0.049 0.074,-0.12 0.074,-0.12 L 2.718,80.24 c -1.916,1.729 0.147,5.772 2.874,8.798 2.694,3 6.497,5.486 8.471,3.859 l 36.057,-32.515 0.039,-0.22 7.249,-15.556 0.974,-3.166 z"
       style="fill:#ffffff"
       id="path113"
       inkscape:connector-curvature="0" /><linearGradient
       x1="7.4770999"
       y1="77.034203"
       x2="57.502499"
       y2="48.2841"
       id="XMLID_26_"
       gradientUnits="userSpaceOnUse"
       gradientTransform="matrix(0.98,-0.1991,0.1991,0.98,-9.7802,8.2928)"><stop
         style="stop-color:#cf0000;stop-opacity:1"
         offset="0"
         id="stop116" /><stop
         style="stop-color:#7c0000;stop-opacity:1"
         offset="1"
         id="stop118" /><a:midPointStop
         offset="0"
         style="stop-color:#CF0000" /><a:midPointStop
         offset="0.5"
         style="stop-color:#CF0000" /><a:midPointStop
         offset="1"
         style="stop-color:#7C0000" /></linearGradient><path
       d="m 56.815,41.887 c -14.88,4.783 -17.574,5.648 -18.149,6.121 0.03,-0.049 0.074,-0.12 0.074,-0.12 L 2.718,80.24 c -1.916,1.729 0.147,5.772 2.874,8.798 2.694,3 6.497,5.486 8.471,3.859 l 36.057,-32.515 0.039,-0.22 7.249,-15.556 0.974,-3.166 z"
       style="fill:url(#XMLID_26_)"
       id="path120"
       inkscape:connector-curvature="0" /><linearGradient
       x1="313.06741"
       y1="-177.2002"
       x2="321.69031"
       y2="-168.57651"
       id="XMLID_27_"
       gradientUnits="userSpaceOnUse"
       gradientTransform="matrix(0.0435,0.999,0.999,-0.0435,195.0785,-254.2708)"><stop
         style="stop-color:#f8f1dc;stop-opacity:1"
         offset="0"
         id="stop123" /><stop
         style="stop-color:#d6a84a;stop-opacity:1"
         offset="1"
         id="stop125" /><a:midPointStop
         offset="0"
         style="stop-color:#F8F1DC" /><a:midPointStop
         offset="0.5"
         style="stop-color:#F8F1DC" /><a:midPointStop
         offset="1"
         style="stop-color:#D6A84A" /></linearGradient><path
       d="m 39.683,49.903 15.704,-5.652 -7.374,14.98 -0.062,-0.068 c -0.033,0.103 -0.075,0.203 -0.13,0.289 l 0.049,0.05 -34.421,31.017 -0.042,-0.051 C 12.381,91.394 9.662,90.043 7.331,87.458 5.003,84.871 3.946,82.029 4.97,81.105 L 39.389,50.094 Z"
       style="fill:url(#XMLID_27_)"
       id="path127"
       inkscape:connector-curvature="0" /><linearGradient
       x1="329.35739"
       y1="-197.62601"
       x2="333.9407"
       y2="-203.0881"
       id="XMLID_28_"
       gradientUnits="userSpaceOnUse"
       gradientTransform="matrix(0.0435,0.999,0.999,-0.0435,195.0785,-254.2708)"><stop
         style="stop-color:#ffc957;stop-opacity:1"
         offset="0"
         id="stop130" /><stop
         style="stop-color:#ffae00;stop-opacity:1"
         offset="1"
         id="stop132" /><a:midPointStop
         offset="0"
         style="stop-color:#FFC957" /><a:midPointStop
         offset="0.5"
         style="stop-color:#FFC957" /><a:midPointStop
         offset="1"
         style="stop-color:#FFAE00" /></linearGradient><path
       d="M 7.331,87.458 C 5.003,84.871 3.946,82.029 4.97,81.105 l 7.755,-6.986 10.911,-0.475 0.323,7.403 -10.508,9.471 -0.042,-0.051 C 12.381,91.394 9.662,90.043 7.331,87.458 Z"
       style="fill:url(#XMLID_28_)"
       id="path134"
       inkscape:connector-curvature="0" /><linearGradient
       x1="302.5752"
       y1="-214.1689"
       x2="321.83981"
       y2="-171.39861"
       id="XMLID_29_"
       gradientUnits="userSpaceOnUse"
       gradientTransform="matrix(0.0435,0.999,0.999,-0.0435,195.0785,-254.2708)"><stop
         style="stop-color:#ff9200;stop-opacity:1"
         offset="0"
         id="stop137" /><stop
         style="stop-color:#ffae00;stop-opacity:1"
         offset="0.77530003"
         id="stop139" /><stop
         style="stop-color:#ff6d00;stop-opacity:1"
         offset="1"
         id="stop141" /><a:midPointStop
         offset="0"
         style="stop-color:#FF9200" /><a:midPointStop
         offset="0.5"
         style="stop-color:#FF9200" /><a:midPointStop
         offset="0.7753"
         style="stop-color:#FFAE00" /><a:midPointStop
         offset="0.5"
         style="stop-color:#FFAE00" /><a:midPointStop
         offset="1"
         style="stop-color:#FF6D00" /></linearGradient><path
       d="m 13.177,90.633 c 0.73,-0.714 0.32,-2.47 -0.903,-4.384 -0.405,-0.636 -0.903,-1.29 -1.478,-1.927 C 10.251,83.715 9.684,83.185 9.123,82.727 7.315,81.253 5.563,80.63 4.763,81.295 L 4.753,81.284 39.4,50.059 c 0.932,-0.263 2.677,0.242 4.266,1.545 0.542,0.447 1.094,0.964 1.62,1.553 0.591,0.653 1.102,1.325 1.514,1.979 1.237,1.953 1.729,3.831 0.948,4.537 -0.181,0.162 -0.962,0.864 -0.991,0.883 L 13.266,90.73 Z"
       style="fill:url(#XMLID_29_)"
       id="path143"
       inkscape:connector-curvature="0" /><linearGradient
       x1="56.380402"
       y1="50.837399"
       x2="49.402302"
       y2="50.837399"
       id="XMLID_30_"
       gradientUnits="userSpaceOnUse"
       gradientTransform="matrix(0.98,-0.1991,0.1991,0.98,-9.7802,8.2928)"><stop
         style="stop-color:#7c0000;stop-opacity:1"
         offset="0"
         id="stop146" /><stop
         style="stop-color:#663333;stop-opacity:1"
         offset="1"
         id="stop148" /><a:midPointStop
         offset="0"
         style="stop-color:#7C0000" /><a:midPointStop
         offset="0.5"
         style="stop-color:#7C0000" /><a:midPointStop
         offset="1"
         style="stop-color:#663333" /></linearGradient><path
       d="m 48.455,46.795 6.641,-2.363 -2.791,5.681 c 0,0 -0.049,-0.838 -1.25,-2.05 -1.583,-1.605 -2.6,-1.268 -2.6,-1.268 z"
       style="opacity:0.8;fill:url(#XMLID_30_)"
       id="path150"
       inkscape:connector-curvature="0" /><path
       d="M 43.51,51.488 9.272,82.854 C 9.223,82.814 9.172,82.766 9.123,82.728 8.401,82.14 7.685,81.69 7.04,81.4 L 41.105,50.192 c 0.752,0.227 1.593,0.659 2.405,1.296 z"
       style="opacity:0.5;fill:#ffffff"
       id="path152"
       inkscape:connector-curvature="0" /><path
       d="M 9.123,82.728 C 8.804,82.467 8.485,82.238 8.175,82.03 L 42.351,50.72 c 0.438,0.237 0.884,0.528 1.315,0.884 0.369,0.306 0.743,0.646 1.111,1.015 L 10.509,84.014 c -0.457,-0.48 -0.923,-0.91 -1.386,-1.286 z"
       style="opacity:0.5;fill:#ffffff"
       id="path154"
       inkscape:connector-curvature="0" /></g></svg>