/* XPM */
static char *dummy[]={
"32 32 430 2",
"Qt c None",
"bs c #000000",
"az c #0100b2",
"bO c #020000",
"cz c #030202",
"be c #040000",
"aX c #050014",
"ao c #0505b3",
"bB c #060009",
"c. c #060202",
"b. c #060606",
"aA c #0700aa",
"br c #080808",
"bN c #090909",
"aB c #0a0095",
"aJ c #0a00a4",
"bf c #0b002f",
"bC c #0b0031",
"ap c #0c0389",
"cN c #0c0707",
"aK c #0f009c",
"cl c #0f0b0b",
"aY c #110076",
"aL c #120095",
"aM c #13008c",
"bz c #130159",
"bA c #140068",
"bi c #14006e",
"b4 c #140c0c",
"bd c #151111",
"bw c #151515",
"bh c #160074",
"bj c #160077",
"aZ c #160087",
"bg c #17007a",
"a1 c #170080",
"a0 c #170082",
"bk c #170170",
"b2 c #171717",
"by c #19141e",
"cw c #1a1616",
"co c #1a1a1a",
"bD c #1c0980",
"bU c #1e193b",
"bx c #1e1a1a",
"ba c #212121",
"a2 c #22055f",
"b# c #282828",
"bP c #291e1e",
"cV c #2c2a2a",
"b3 c #2c2c2c",
"a9 c #2e2e2e",
"bK c #323232",
"db c #3a1f1f",
"bT c #3c2f86",
"aN c #3d0f4c",
"dL c #400000",
"aW c #403b5e",
"bJ c #414141",
"cx c #494646",
"bb c #4b4b4b",
"dK c #4c3b3b",
"bt c #4f4f4f",
"cm c #504d4d",
"bv c #555555",
"cJ c #560000",
"c# c #575454",
"cM c #585858",
"dt c #5b5858",
"cI c #5f1313",
"cK c #612b2b",
"aI c #6260cb",
"b5 c #6c3b3b",
"bM c #707070",
"ae c #72577d",
"bL c #737373",
"bu c #747474",
"aC c #753440",
"cf c #753e3d",
"eG c #810000",
"ay c #8383d7",
"eH c #840000",
"cy c #868686",
"eF c #870000",
"bc c #878585",
"eu c #8d0000",
"ev c #8e0000",
"et c #900000",
"cp c #904641",
"bl c #904b3e",
"eE c #910101",
"du c #930000",
"ew c #933939",
"es c #960000",
"ei c #970000",
"da c #97433e",
"ej c #980000",
"ek c #983939",
"eh c #990000",
"dc c #9a0000",
"eI c #9a5050",
"bQ c #9c7777",
"eg c #9d0000",
"d6 c #9e3b3b",
"d5 c #9f0000",
"d4 c #a00000",
"b8 c #a05352",
"ef c #a10000",
"cU c #a1463b",
"d3 c #a30000",
"dR c #a33d3d",
"b7 c #a35249",
"#M c #a39490",
"b6 c #a45754",
"#L c #a49591",
"#K c #a59692",
"dO c #a60000",
"ck c #a69090",
"#J c #a69793",
"dN c #a70000",
"ee c #a70404",
"dM c #a80000",
"cA c #a84d43",
"cu c #a85048",
"cG c #a88787",
"d2 c #a90000",
"dv c #aa0000",
"cn c #aaa7a5",
"cZ c #ab0000",
"#I c #ac7363",
"dP c #ad1717",
"bF c #ad836f",
"dQ c #af1c1c",
"#n c #af806f",
"bE c #afadcf",
"cj c #b06a55",
"a# c #b14c3d",
"#6 c #b17b62",
"bS c #b2acd0",
"cW c #b3b2b2",
"eO c #b46969",
"dr c #b4706e",
"dI c #b47c7c",
"dd c #b51f1f",
"c3 c #b52d2d",
"dZ c #b58989",
"aj c #b592aa",
"aq c #b66f4c",
"eb c #b79696",
"bX c #b8a79e",
"eR c #b8b8b8",
"dz c #ba7b7b",
"eq c #baa2a2",
"cO c #bb5342",
"#C c #bba6a0",
"df c #bc7474",
".6 c #bc7654",
"ds c #bcbbbb",
"eB c #bdafaf",
"eD c #be5e5e",
"eQ c #bebebe",
"#4 c #c0c0c0",
"ad c #c1c1c1",
"am c #c2c2c2",
"c2 c #c34848",
"eN c #c37f7f",
"#Q c #c3c3c3",
"aT c #c4c4c4",
"a7 c #c5c5c5",
"c0 c #c65252",
"#S c #c67f53",
"bp c #c6c6c6",
"#B c #c7c7c7",
"cY c #c86363",
"a3 c #c8834c",
"b1 c #c8c8c8",
"#N c #c9623a",
"er c #c97171",
"aa c #c9bcd5",
"cd c #c9c9c9",
"cb c #ca864e",
"dA c #cacaca",
"ca c #cbc9c7",
".I c #cc6b52",
".H c #cc6b53",
"cg c #cc7859",
"eL c #ccc5c5",
"dJ c #cccbcb",
"#m c #cccccc",
".G c #cd6c54",
".F c #cd6d55",
".E c #cd6e55",
".J c #cd7a67",
"a8 c #cdcdcd",
"an c #cdcded",
".D c #ce6f57",
"cF c #ce7846",
"ex c #ce9090",
"bV c #cecde1",
"cv c #cecece",
".C c #cf7059",
".B c #cf705a",
"dS c #cf8989",
"#2 c #d06d43",
"dg c #d0b1b1",
"c6 c #d15f45",
".A c #d17360",
"c1 c #d17373",
"dw c #d17777",
"ai c #d26d40",
"ab c #d27044",
"#X c #d2856d",
".L c #d38559",
"eK c #d38989",
"eP c #d3a4a4",
"#R c #d3cecd",
"ak c #d47244",
"av c #d48f7a",
"aw c #d57444",
"b9 c #d5d5d5",
"bq c #d6d6d6",
"dj c #d7d7d7",
"el c #d8382e",
"di c #d8d8d8",
".h c #d9d9d9",
"dl c #da6540",
".g c #dadada",
"#H c #db7747",
".f c #dbdbdb",
"dh c #dcdada",
".e c #dcdcdc",
".d c #dddddd",
".c c #dedede",
".4 c #df8048",
".b c #dfdfdf",
"ey c #e0502f",
".5 c #e0dedd",
".a c #e0e0e0",
"#l c #e18046",
"#A c #e18146",
"#D c #e1a665",
"dx c #e1a8a8",
"dy c #e1a9a9",
"ch c #e1bead",
"c4 c #e1c9c9",
".# c #e1e1e1",
"aG c #e26f32",
"dY c #e27427",
"af c #e2ad67",
"d1 c #e2b9b9",
"ce c #e2e2e2",
"eA c #e36c39",
"#P c #e38246",
"cH c #e3c1c1",
"aU c #e3e3e3",
"eM c #e4c7c7",
"#3 c #e58546",
"bY c #e5a75a",
"d7 c #e66731",
"ep c #e67934",
"dH c #e67b25",
"ea c #e67c2e",
"ac c #e68646",
"de c #e6b3b3",
"d0 c #e6e6e6",
"al c #e78746",
"#y c #e79055",
"#x c #e79156",
"#w c #e79158",
"#v c #e7925b",
"#u c #e7935c",
"#t c #e7935e",
"#s c #e79460",
"aV c #e7e7e7",
"dC c #e87f40",
"ax c #e88946",
"#5 c #e8e8e8",
"bR c #e9e9e9",
"aH c #ea8b46",
"au c #ea9758",
"ec c #eaeaea",
"aS c #eb8c46",
"#z c #eb9f61",
"#W c #eba067",
"aO c #ebbc6d",
"ct c #ebd5ab",
"bW c #ebebeb",
"dq c #ec7c21",
"a6 c #ec8e46",
"#1 c #ececec",
"cc c #ed9d4b",
"dk c #edd8d8",
"#0 c #ededed",
"bo c #ee9046",
"#r c #eeaf7c",
"c5 c #eee3e3",
"cL c #eeebeb",
"#Y c #eeecec",
"#Z c #eeeeee",
"dB c #efcdcd",
"cX c #efecec",
".x c #efefef",
"bI c #f09146",
".y c #f0f0f0",
"d# c #f1781d",
"b0 c #f19548",
"#o c #f1cd7e",
"ed c #f1e8e8",
".w c #f1f1f1",
".v c #f2f2f2",
"dT c #f3963f",
"cq c #f3b150",
".u c #f3f3f3",
"bG c #f4cb71",
"eJ c #f4dddd",
"ci c #f4e8ce",
".t c #f4f4f4",
"cT c #f57617",
"aF c #f5b56f",
"a. c #f5be7e",
"#7 c #f5d580",
"eC c #f5f2f2",
".i c #f5f5f5",
".s c #f6f6f6",
".r c #f7f7f7",
"ez c #f8a933",
"cB c #f8be55",
".q c #f8f8f8",
"aD c #f9dc82",
".7 c #f9e28b",
".K c #f9f4f3",
".p c #f9f9f9",
"bm c #fae081",
"#T c #fae58b",
".z c #faf0ee",
".o c #fafafa",
".n c #fbfbfb",
"cs c #fcab5f",
"cP c #fcc359",
"ah c #fcce82",
"#G c #fcd591",
"a4 c #fce684",
"ar c #fce689",
"ag c #fce78a",
"#E c #fce88f",
".M c #fced9e",
".m c #fcfcfc",
"c7 c #fdc760",
"aQ c #fdd07e",
"aP c #fde383",
"bZ c #fde47f",
"#p c #fde996",
".l c #fdfdfd",
"dm c #feca65",
"at c #fed47e",
"bH c #fedf78",
"#8 c #fee48e",
".k c #fefefe",
"cE c #ff6e00",
"cS c #ff7b00",
"d. c #ff8900",
"dp c #ff9700",
"cD c #ff9828",
"cR c #ff9f1e",
"dG c #ffa500",
"e. c #ffa904",
"c9 c #ffa917",
"eo c #ffab06",
"e# c #ffac02",
"dW c #ffac07",
"dX c #ffae01",
"en c #ffae14",
"dF c #ffb00b",
"do c #ffb210",
"em c #ffbc2d",
"d8 c #ffc65f",
"d9 c #ffc966",
"#k c #ffca5b",
"#j c #ffcb5f",
"dD c #ffcb6a",
"dU c #ffcc70",
"#i c #ffcd64",
"#h c #ffce69",
"dV c #ffce70",
"cr c #ffce90",
"aR c #ffcf6a",
"#O c #ffcf6c",
"#g c #ffd06d",
"a5 c #ffd16c",
".3 c #ffd170",
"#f c #ffd172",
".2 c #ffd273",
"dE c #ffd279",
".1 c #ffd377",
"cC c #ffd390",
".0 c #ffd47c",
"#e c #ffd57b",
"dn c #ffd581",
".Z c #ffd67f",
"#d c #ffd680",
"#9 c #ffd782",
".Y c #ffd784",
"#c c #ffd885",
"c8 c #ffd888",
"cQ c #ffd88d",
"bn c #ffd972",
"as c #ffd97e",
".X c #ffd988",
"#b c #ffd989",
".W c #ffda8c",
"#V c #ffda8d",
"#a c #ffdb8e",
".V c #ffdb90",
"#F c #ffdc92",
"## c #ffdc93",
".U c #ffdd94",
"#. c #ffde97",
".T c #ffde98",
"aE c #ffdf81",
".9 c #ffdf9c",
"#U c #ffe090",
".S c #ffe09c",
".R c #ffe0a1",
"#q c #ffe2a3",
".Q c #ffe2a4",
".P c #ffe3a8",
".O c #ffe5ad",
".8 c #ffe7a0",
".N c #ffe7ae",
".j c #ffffff",
"QtQt.#.#.#.#.a.a.b.b.b.c.c.d.d.d.d.e.e.f.f.f.g.g.h.h.h.h.h.hQtQt",
"QtQt.i.j.j.j.j.j.j.j.j.j.j.k.l.l.m.n.o.p.q.r.s.i.t.u.v.w.w.xQtQt",
"QtQt.s.j.j.j.j.j.j.j.j.j.j.k.l.m.n.o.p.q.r.s.s.i.t.u.v.w.y.xQtQt",
"QtQt.s.j.j.j.j.z.A.B.C.C.C.D.D.D.D.E.F.F.G.G.G.H.I.I.I.J.y.xQtQt",
"QtQt.r.j.j.j.j.K.L.M.N.O.P.Q.R.S.T.U.V.W.X.Y.Z.0.1.2.3.4.f.xQtQt",
"QtQt.r.j.j.j.j.j.5.6.7.8.9#.###a#b#c#d#e.1#f#g#h#i#j#k#l#m.yQtQt",
"QtQt.r.j.j.j.j.j.j.v#n#o#p#.###q#r#s#t#u#v#w#x#y#z#h#k#A#B.wQtQt",
"QtQt.r.j.j.j.j.j.j.j.n#C#D#E#F#a#G#H#I#J#K#L#M#M#N#O#k#P#Q.wQtQt",
"QtQt.q.j.j.j.j.j.j.j.k.l#R#S#T#U#b#V#W#X#Y#Z#0#1#2#O#k#3#4.vQtQt",
"QtQt.q.j.j.j.j.j.j.k.l.m.n#5#6#7#8#c#9a.a#aa.v.wab#O#kacad.vQtQt",
"QtQt.q.j.j.j.j.j.j.k.l.m.n.o.taeafag.Z#eahaiaj.wak#O#kalam.uQtQt",
"QtQt.p.j.j.j.j.j.k.l.m.n.o.panaoapaqaras.1atauavaw#O#kax#Q.uQtQt",
"QtQt.p.j.j.j.j.j.k.l.m.n.o.payazaAaBaCaDaE#f#faFaG#O#kaH#Q.tQtQt",
"QtQt.p.j.j.j.j.k.l.m.n.o.p.qaIaJaKaLaMaNaOaP#g#haQaR#kaSaT.tQtQt",
"QtQt.o.j.j.jaUaT#1.m.n.o.paVaWaXaYaZa0a1a2a3a4a5#i#j#ka6a7.iQtQt",
"QtQt.o.ja8a9b.b#babb.#.wbcbdbebebfbgbhbibjbkblbmbn#j#kbobp.iQtQt",
"QtQt.obqbrbsbtbububvbwbxbebebebybzbAbBbebCbDbEbFbGbH#kbI#B.sQtQt",
"QtQt.qbJbsbsbKbLbubMbNbObebPbQbRbSbTbebebUbVbW#5bXbYbZb0b1.sQtQt",
"QtQt.yb.bsbsbsb2b3b2b4b5b6b7b8b9#1#1c.bec##1#1#1#1cacbcccd.rQtQt",
"QtQtcebsbsbsbsbsbscfcgchcicjckbW#Z#Zclbecm#Z#Z#Z#Z#Z.acnbq.qQtQt",
"QtQt.qcobsbsbsbscpcqcrcsctcucv.x.x.xcwbecx.x.x.x.x.x.x#Z#Z.qQtQt",
"QtQt.qcybsbsczcAcBcCcDcEcFcGbW.y.ycHcIcJcKcL.y.y.y.y.y.y.y.qQtQt",
"QtQt.p.xcMcNcOcPcQcRcScTcUcVcWcXcYcZc0c1c2c3c4bWbWbWbWbWbW.uQtQt",
"QtQt.p.vc5c6c7c8c9d.d#dabebebedbdcdddedededfdgdh.gdidjdjdjb1QtQt",
"QtQt.pdkdldmdndodpdqdrdsdtc.bebedudvdwdxdydz.m.m.l.k.j.j.ydAQtQt",
"QtQtdBdCdDdEdFdGdHdI.b.u.udJdKdLdMdNdOdPdQdR.o.r.q.p.o#1cdQtQtQt",
"QtdSdTdUdVdWdXdYdZd0.t.t.t.td1d2dOd3d4d5d4d6.r.w.u.taV#BQtQtQtQt",
"Qtd7d8d9e.e#eaebec.i.i.i.i.iedeeefegeheiejek.t#1#Z.#a7QtQtQtQtQt",
"Qtelemeneoepeq.x.s.s.s.s.s.s.seregeseteuevew.vaV.e#QQtQtQtQtQtQt",
"QtexeyezeAeB.u.r.r.r.r.r.r.r.reCeDeEeFeGeHeI.xbq#4QtQtQtQtQtQtQt",
"QtQteJeKeL.s.q.q.q.q.q.q.q.q.q.q.qeMeNeOePcv.beQQtQtQtQtQtQtQtQt",
"QtQt.h.g.g.g.g.g.g.g.g.g.g.g.g.g.g.g.g.g.gameRQtQtQtQtQtQtQtQtQt"};
